<svg id="add-user" xmlns="http://www.w3.org/2000/svg" width="40.028" height="40.028" viewBox="0 0 40.028 40.028">
  <g id="Group_15" data-name="Group 15" transform="translate(0)">
    <g id="Group_14" data-name="Group 14">
      <path id="Path_21" data-name="Path 21" d="M28.737,20.085a20.343,20.343,0,0,0-2.353-.944,10.632,10.632,0,1,0-12.731.006A20.337,20.337,0,0,0,.1,34.3a4.75,4.75,0,0,0,4.644,5.729H24A1.564,1.564,0,1,0,24,36.9H4.745a1.589,1.589,0,0,1-1.251-.595,1.633,1.633,0,0,1-.331-1.37A17.276,17.276,0,0,1,19.6,21.257q.206.008.415.008t.419-.008a17.032,17.032,0,0,1,6.961,1.653,1.564,1.564,0,0,0,1.343-2.824ZM20.4,18.128q-.19,0-.381,0t-.378,0a7.505,7.505,0,1,1,.76,0Z" transform="translate(0)" fill="#fff"/>
    </g>
  </g>
  <g id="Group_17" data-name="Group 17" transform="translate(25.174 25.174)">
    <g id="Group_16" data-name="Group 16">
      <path id="Path_22" data-name="Path 22" d="M335.291,327.863h-4.3v-4.3a1.564,1.564,0,0,0-3.127,0v4.3h-4.3a1.564,1.564,0,0,0,0,3.127h4.3v4.3a1.564,1.564,0,0,0,3.127,0v-4.3h4.3a1.564,1.564,0,0,0,0-3.127Z" transform="translate(-322 -322)" fill="#fff"/>
    </g>
  </g>
</svg>
