<svg xmlns="http://www.w3.org/2000/svg" width="45.223" height="40.378" viewBox="0 0 45.223 40.378">
  <g id="_22_archive" data-name="22 archive" transform="translate(0)">
    <path id="Path_23" data-name="Path 23" d="M43.993,9.845H26.905l-3.747-3.86A3.23,3.23,0,0,0,20.848,5H11.691A3.23,3.23,0,0,0,8.46,8.23v3.23H5.23A3.23,3.23,0,0,0,2,14.691V42.148a3.23,3.23,0,0,0,3.23,3.23h32.3a3.23,3.23,0,0,0,3.23-3.23v-3.23h3.23a3.23,3.23,0,0,0,3.23-3.23V13.076A3.23,3.23,0,0,0,43.993,9.845ZM5.23,42.148V14.691h9.142l3.779,3.86a3.23,3.23,0,0,0,2.31.985H37.532V42.148Zm38.763-6.46h-3.23V19.536a3.23,3.23,0,0,0-3.23-3.23H20.445L16.7,12.446a3.23,3.23,0,0,0-2.326-.985H11.691V8.23h9.158l3.763,3.86a3.23,3.23,0,0,0,2.31.985H43.993ZM18.151,37.3a1.615,1.615,0,0,1-1.615,1.615h-6.46a1.615,1.615,0,0,1,0-3.23h6.46A1.615,1.615,0,0,1,18.151,37.3Z" transform="translate(-2 -5)" fill="#fff"/>
  </g>
</svg>
