<svg class="svg-icon" style="color: #169FDB; width: 1em; height: 1em;vertical-align: middle;fill: currentColor;overflow: hidden;" viewBox="0 0 1024 1024" version="1.1" xmlns="http://www.w3.org/2000/svg"><path d="M557.3 512l329.4-329.4c12.5-12.5 12.5-32.8 0-45.3-6.2-6.2-14.4-9.4-22.6-9.4-8.2 0-16.4 3.1-22.6 9.4L512 466.7 182.6 137.4c-6.3-6.2-14.4-9.4-22.6-9.4-8.2 0-16.4 3.1-22.6 9.4-12.5 12.5-12.5 32.8 0 45.3L466.7 512 137.4 841.4c-12.5 12.5-12.5 32.8 0 45.3 6.2 6.2 14.4 9.4 22.6 9.4 8.2 0 16.4-3.1 22.6-9.4L512 557.3l329.4 329.4c6.2 6.2 14.4 9.4 22.6 9.4 8.2 0 16.4-3.1 22.6-9.4 12.5-12.5 12.5-32.8 0-45.3L557.3 512z"  /></svg>