<svg class="svg-icon" style="color: #169FDB; width: 1.0029296875em; height: 1em;vertical-align: middle;fill: currentColor;overflow: hidden;" viewBox="0 0 1027 1024" version="1.1" xmlns="http://www.w3.org/2000/svg"><path d="M512 682.666667c-93.866667 0-170.666667-76.8-170.666667-170.666667s76.8-170.666667 170.666667-170.666667 170.666667 76.8 170.666667 170.666667S605.866667 682.666667 512 682.666667zM512 426.666667c-46.933333 0-85.333333 38.4-85.333333 85.333333s38.4 85.333333 85.333333 85.333333 85.333333-38.4 85.333333-85.333333S558.933333 426.666667 512 426.666667z"  /><path d="M512 853.333333c-320 0-499.2-307.2-507.733333-320-8.533333-12.8-8.533333-29.866667 0-42.666667C12.8 477.866667 192 170.666667 512 170.666667s499.2 307.2 507.733333 320c8.533333 12.8 8.533333 29.866667 0 42.666667C1011.2 546.133333 832 853.333333 512 853.333333zM93.866667 512c42.666667 64 192 256 418.133333 256 226.133333 0 375.466667-192 418.133333-256-42.666667-64-192-256-418.133333-256C285.866667 256 136.533333 448 93.866667 512z"  /></svg>