<svg id="Warstwa_x0020_1" xmlns="http://www.w3.org/2000/svg" width="46.108" height="35.529" viewBox="0 0 46.108 35.529">
  <path id="Path_33" data-name="Path 33" d="M15079.643,8757.2h-4.961v-4.96a1.24,1.24,0,1,0-2.48,0v4.96h-4.961a1.24,1.24,0,0,0,0,2.48h4.961v4.962a1.24,1.24,0,1,0,2.48,0v-4.962h4.961a1.24,1.24,0,0,0,0-2.48Z" transform="translate(-15040.491 -8736.183)" fill="#fff"/>
  <g id="Group_33" data-name="Group 33" transform="translate(0 0)">
    <path id="Path_34" data-name="Path 34" d="M34.43,4.035A4.039,4.039,0,0,0,30.4,0H4.035A4.039,4.039,0,0,0,0,4.035v5.11a4.02,4.02,0,0,0,1.029,2.69A4.02,4.02,0,0,0,0,14.526V19.9A4.02,4.02,0,0,0,1.029,22.6,4.015,4.015,0,0,0,0,25.284V30.4A4.039,4.039,0,0,0,4.035,34.43H27.686A13.158,13.158,0,1,0,34.427,9.3v0h0V9.289h0v0h0v0h0v0h0v0h0v0h0v0h0v0h0v0h0v0h0v0h0l0,0h0V9.258h0v0h0v0h0v0h0v0h0v0h0v0h0v0h0v0h0v0h0v0h0v0h0V9.228h0v0h0v0h0v0h0V9.216h0v0h0v0h0v0h0v0h0v0h0v0h0v0h0v0h0v0h0v0h0v0h0v0h0v0h0v0h0v0h0v0h0v0h0v0h0v0h0v0h0v0h0l0,0h0v0h0v0h0v0h0v0h0v0h0V4.035Zm-30.4,27.7A1.345,1.345,0,0,1,2.69,30.4V25.284a1.345,1.345,0,0,1,1.344-1.344H19.886a13.132,13.132,0,0,0,3.835,7.8ZM19.84,21.249H4.035A1.345,1.345,0,0,1,2.69,19.9V14.526a1.347,1.347,0,0,1,1.344-1.346H23.54A13.136,13.136,0,0,0,19.84,21.249ZM4.035,10.491A1.347,1.347,0,0,1,2.69,9.145V4.035A1.345,1.345,0,0,1,4.035,2.69H30.4A1.345,1.345,0,0,1,31.74,4.035V9.15h0v0h0v0h0v0h0v0h0v0h0v.005h0v0h0v0h0v0h0v0h0v0h0v0h0v0h0v0h0v0h0v0h0v0h0l0,0h0v0h0V9.2h0v0h0v0h0v0h0v0h0v0h0v.007h0v0h0v0h0v0h0v0h0l0,.005h0v0h0v0h0v0h0v0h0v0h0v0h0v0h0v0h0v0l0,0h0v0h0v0h0v.008h0v0h0v0a12.944,12.944,0,0,0-4.448,1.224Zm30.1-1.224h.007l0,0h.017l0,0h.005Zm.007,0,0,0h0Zm0,0h0Zm.024,0h0Zm.005,0h0Zm.005,0h0v0h0v0Zm0,0h0Zm0,0Zm0,0h0Zm0,0ZM32.95,33.047A10.676,10.676,0,1,1,43.627,22.37,10.689,10.689,0,0,1,32.95,33.047ZM5.379,26.494H8.07v2.69H5.379Zm0-10.692H8.07v2.69H5.379Zm0-10.557H8.07V7.934H5.379ZM10.76,26.494h2.689v2.69H10.76Zm0-10.692h2.689v2.69H10.76Zm0-10.557h2.689V7.934H10.76Z" transform="translate(0 0)" fill="#fff"/>
  </g>
</svg>
