<svg xmlns="http://www.w3.org/2000/svg" width="36.011" height="36.011" viewBox="0 0 36.011 36.011">
  <path id="bar-chart" d="M4.03,16.016a1.407,1.407,0,0,1,0-1.989l8.236-8.236a1.407,1.407,0,0,1,1.989,0l5.179,5.179L27.59,2.813H23.977a1.407,1.407,0,0,1,0-2.813h7.009a1.409,1.409,0,0,1,1.407,1.407v7.01a1.407,1.407,0,1,1-2.813,0V4.8l-9.151,9.151a1.407,1.407,0,0,1-1.989,0L13.261,8.775,6.02,16.016A1.407,1.407,0,0,1,4.03,16.016Zm6.02,10.289v8.3a1.407,1.407,0,0,1-1.407,1.407H1.407A1.407,1.407,0,0,1,0,34.6v-8.3A1.407,1.407,0,0,1,1.407,24.9H8.643A1.407,1.407,0,0,1,10.05,26.305ZM7.237,27.712H2.813V33.2H7.237Zm15.794-6.757V34.6a1.407,1.407,0,0,1-1.407,1.407H14.387A1.407,1.407,0,0,1,12.981,34.6V20.955a1.407,1.407,0,0,1,1.407-1.407h7.237A1.407,1.407,0,0,1,23.031,20.955Zm-2.813,1.407H15.794V33.2h4.423ZM36.011,15.6v19A1.407,1.407,0,0,1,34.6,36.011H27.368A1.407,1.407,0,0,1,25.961,34.6v-19A1.407,1.407,0,0,1,27.368,14.2H34.6A1.407,1.407,0,0,1,36.011,15.6ZM33.2,17.011H28.775V33.2H33.2Z" fill="#fff"/>
</svg>
