<svg id="server" xmlns="http://www.w3.org/2000/svg" width="42.664" height="42.664" viewBox="0 0 42.664 42.664">
  <path id="Path_29" data-name="Path 29" d="M42.664,5a5.005,5.005,0,0,0-5-5H5A5.005,5.005,0,0,0,0,5v6.333a4.98,4.98,0,0,0,1.276,3.333A4.98,4.98,0,0,0,0,18v6.666A4.98,4.98,0,0,0,1.276,28,4.98,4.98,0,0,0,0,31.332v6.333a5.005,5.005,0,0,0,5,5H37.665a5.005,5.005,0,0,0,5-5V31.332A4.98,4.98,0,0,0,41.388,28a4.98,4.98,0,0,0,1.276-3.333V18a4.98,4.98,0,0,0-1.276-3.333,4.98,4.98,0,0,0,1.276-3.333ZM39.331,37.665a1.668,1.668,0,0,1-1.667,1.667H5a1.668,1.668,0,0,1-1.667-1.667V31.332A1.668,1.668,0,0,1,5,29.665H37.665a1.668,1.668,0,0,1,1.667,1.667Zm0-13a1.668,1.668,0,0,1-1.667,1.667H5a1.668,1.668,0,0,1-1.667-1.667V18A1.668,1.668,0,0,1,5,16.332H37.665A1.668,1.668,0,0,1,39.331,18Zm0-13.333A1.668,1.668,0,0,1,37.665,13H5a1.668,1.668,0,0,1-1.667-1.667V5A1.668,1.668,0,0,1,5,3.333H37.665A1.668,1.668,0,0,1,39.331,5ZM6.666,32.832H10v3.333H6.666Zm0-13.249H10v3.333H6.666Zm0-13.083H10V9.833H6.666Zm6.666,26.332h3.333v3.333H13.333Zm0-13.249h3.333v3.333H13.333Zm0-13.083h3.333V9.833H13.333Zm0,0" fill="#fff"/>
  <path id="Path_30" data-name="Path 30" d="M42.664,5a5.005,5.005,0,0,0-5-5H5A5.005,5.005,0,0,0,0,5v6.333a4.98,4.98,0,0,0,1.276,3.333A4.98,4.98,0,0,0,0,18v6.666A4.98,4.98,0,0,0,1.276,28,4.98,4.98,0,0,0,0,31.332v6.333a5.005,5.005,0,0,0,5,5H37.665a5.005,5.005,0,0,0,5-5V31.332A4.98,4.98,0,0,0,41.388,28a4.98,4.98,0,0,0,1.276-3.333V18a4.98,4.98,0,0,0-1.276-3.333,4.98,4.98,0,0,0,1.276-3.333ZM39.331,37.665a1.668,1.668,0,0,1-1.667,1.667H5a1.668,1.668,0,0,1-1.667-1.667V31.332A1.668,1.668,0,0,1,5,29.665H37.665a1.668,1.668,0,0,1,1.667,1.667Zm0-13a1.668,1.668,0,0,1-1.667,1.667H5a1.668,1.668,0,0,1-1.667-1.667V18A1.668,1.668,0,0,1,5,16.332H37.665A1.668,1.668,0,0,1,39.331,18Zm0-13.333A1.668,1.668,0,0,1,37.665,13H5a1.668,1.668,0,0,1-1.667-1.667V5A1.668,1.668,0,0,1,5,3.333H37.665A1.668,1.668,0,0,1,39.331,5ZM6.666,32.832H10v3.333H6.666Zm0-13.249H10v3.333H6.666Zm0-13.083H10V9.833H6.666Zm6.666,26.332h3.333v3.333H13.333Zm0-13.249h3.333v3.333H13.333Zm0-13.083h3.333V9.833H13.333Zm0,0" fill="#fff"/>
</svg>
