<svg xmlns="http://www.w3.org/2000/svg" width="36.804" height="36.804" viewBox="0 0 36.804 36.804">
  <path id="exclamation-circle" d="M26.4,8A18.4,18.4,0,1,0,44.8,26.4,18.4,18.4,0,0,0,26.4,8Zm0,33.243A14.84,14.84,0,1,1,41.243,26.4,14.832,14.832,0,0,1,26.4,41.243Zm3.116-7.717A3.116,3.116,0,1,1,26.4,30.409,3.12,3.12,0,0,1,29.519,33.525ZM23.481,17.839l.5,10.091a.89.89,0,0,0,.889.846H27.93a.89.89,0,0,0,.889-.846l.5-10.091a.89.89,0,0,0-.889-.935H24.37A.89.89,0,0,0,23.481,17.839Z" transform="translate(-8 -8)" fill="#fff"/>
</svg>
