<svg xmlns="http://www.w3.org/2000/svg" width="28.067" height="28.067" viewBox="0 0 28.067 28.067">
  <path id="search-plus" d="M17.1,10.744v1.316a.66.66,0,0,1-.658.658H12.717v3.727a.66.66,0,0,1-.658.658H10.744a.66.66,0,0,1-.658-.658V12.717H6.359a.66.66,0,0,1-.658-.658V10.744a.66.66,0,0,1,.658-.658h3.727V6.359a.66.66,0,0,1,.658-.658h1.316a.66.66,0,0,1,.658.658v3.727h3.727A.66.66,0,0,1,17.1,10.744ZM27.874,26.635l-1.239,1.239a.658.658,0,0,1-.932,0l-6.655-6.655a.651.651,0,0,1-.192-.466V20.03a11.4,11.4,0,1,1,1.173-1.173h.724a.674.674,0,0,1,.466.192L27.874,25.7A.658.658,0,0,1,27.874,26.635ZM20.172,11.4a8.77,8.77,0,1,0-8.77,8.77A8.768,8.768,0,0,0,20.172,11.4Z" fill="#fff"/>
</svg>
