<svg xmlns="http://www.w3.org/2000/svg" width="36.335" height="41.526" viewBox="0 0 36.335 41.526">
  <path id="calendar-check" d="M32.442,5.191H28.549V.973A.973.973,0,0,0,27.576,0H24.331a.973.973,0,0,0-.973.973V5.191H12.977V.973A.973.973,0,0,0,12,0H8.759a.973.973,0,0,0-.973.973V5.191H3.893A3.893,3.893,0,0,0,0,9.084V37.633a3.893,3.893,0,0,0,3.893,3.893H32.442a3.893,3.893,0,0,0,3.893-3.893V9.084A3.893,3.893,0,0,0,32.442,5.191Zm-.487,32.442H4.38a.487.487,0,0,1-.487-.487V12.977H32.442V37.146a.487.487,0,0,1-.487.487ZM27.669,21.359,16.127,32.808a.973.973,0,0,1-1.376-.006l-6.09-6.14a.973.973,0,0,1,.006-1.376l1.843-1.828a.973.973,0,0,1,1.376.006l3.577,3.606,9.008-8.936a.973.973,0,0,1,1.376.006l1.828,1.843a.973.973,0,0,1-.006,1.376Z" fill="#fff"/>
</svg>
