<svg xmlns="http://www.w3.org/2000/svg" width="23.081" height="26.378" viewBox="0 0 23.081 26.378">
  <path id="calendar-alt" d="M7.625,14.838H5.564a.62.62,0,0,1-.618-.618V12.159a.62.62,0,0,1,.618-.618H7.625a.62.62,0,0,1,.618.618V14.22A.62.62,0,0,1,7.625,14.838Zm5.564-.618V12.159a.62.62,0,0,0-.618-.618H10.51a.62.62,0,0,0-.618.618V14.22a.62.62,0,0,0,.618.618h2.061A.62.62,0,0,0,13.189,14.22Zm4.946,0V12.159a.62.62,0,0,0-.618-.618H15.456a.62.62,0,0,0-.618.618V14.22a.62.62,0,0,0,.618.618h2.061A.62.62,0,0,0,18.135,14.22Zm-4.946,4.946V17.1a.62.62,0,0,0-.618-.618H10.51a.62.62,0,0,0-.618.618v2.061a.62.62,0,0,0,.618.618h2.061A.62.62,0,0,0,13.189,19.165Zm-4.946,0V17.1a.62.62,0,0,0-.618-.618H5.564a.62.62,0,0,0-.618.618v2.061a.62.62,0,0,0,.618.618H7.625A.62.62,0,0,0,8.243,19.165Zm9.892,0V17.1a.62.62,0,0,0-.618-.618H15.456a.62.62,0,0,0-.618.618v2.061a.62.62,0,0,0,.618.618h2.061A.62.62,0,0,0,18.135,19.165Zm4.946-13.4V23.905a2.474,2.474,0,0,1-2.473,2.473H2.473A2.474,2.474,0,0,1,0,23.905V5.77A2.474,2.474,0,0,1,2.473,3.3H4.946V.618A.62.62,0,0,1,5.564,0H7.625a.62.62,0,0,1,.618.618V3.3h6.595V.618A.62.62,0,0,1,15.456,0h2.061a.62.62,0,0,1,.618.618V3.3h2.473A2.474,2.474,0,0,1,23.081,5.77ZM20.608,23.6V8.243H2.473V23.6a.31.31,0,0,0,.309.309H20.3A.31.31,0,0,0,20.608,23.6Z"/>
</svg>
