<svg xmlns="http://www.w3.org/2000/svg" width="36.33" height="41.53" viewBox="0 0 36.33 41.53">
  <path id="calendar-day" d="M9.083,29.85h7.785a1.3,1.3,0,0,0,1.3-1.3V20.765a1.3,1.3,0,0,0-1.3-1.3H9.083a1.3,1.3,0,0,0-1.3,1.3v7.787A1.3,1.3,0,0,0,9.083,29.85ZM32.438,5.191H28.545V1.3a1.3,1.3,0,0,0-1.3-1.3H24.653a1.3,1.3,0,0,0-1.3,1.3V5.191H12.975V1.3a1.3,1.3,0,0,0-1.3-1.3h-2.6a1.3,1.3,0,0,0-1.3,1.3V5.191H3.893A3.894,3.894,0,0,0,0,9.085V37.637A3.894,3.894,0,0,0,3.893,41.53H32.438a3.894,3.894,0,0,0,3.892-3.893V9.085A3.894,3.894,0,0,0,32.438,5.191Zm0,31.959a.488.488,0,0,1-.487.487H4.379a.488.488,0,0,1-.487-.487V12.978H32.438Z" fill="#fff"/>
</svg>
