<svg xmlns="http://www.w3.org/2000/svg" width="48.441" height="36.33" viewBox="0 0 48.441 36.33">
  <path id="car" d="M11.429,81.408c-2.456,0-4.239,1.589-4.239,3.78s1.782,3.78,4.239,3.78l.959.009c3.71,0,4.263-1.9,4.263-3.035C16.65,83.607,13.709,81.408,11.429,81.408Zm.959,5.3c-.332,0-.664-.009-.959-.009-1.181,0-1.968-.6-1.968-1.509s.787-1.509,1.968-1.509,2.952,1.359,2.952,2.264C14.381,86.621,13.383,86.706,12.388,86.706Zm24.621-5.3c-2.28,0-5.222,2.2-5.222,4.535,0,1.133.553,3.035,4.263,3.035l.959-.009c2.456,0,4.239-1.589,4.239-3.78S39.465,81.408,37.009,81.408Zm0,5.289c-.3,0-.627.009-.959.009-1,0-1.992-.085-1.992-.764,0-.905,1.771-2.264,2.952-2.264s1.968.6,1.968,1.509S38.19,86.7,37.009,86.7ZM47.871,73.363a3.76,3.76,0,0,0-3.22-1.795h-4.7l-.764-2.343A7.569,7.569,0,0,0,31.993,64H16.445a7.568,7.568,0,0,0-7.2,5.224l-.764,2.343h-4.7A3.784,3.784,0,0,0,.4,77.043l.547,1.1A4.411,4.411,0,0,0,2.557,79.9a7.422,7.422,0,0,0-1.044,3.782V95.789a4.546,4.546,0,0,0,4.541,4.541H7.569a4.546,4.546,0,0,0,4.541-4.541V94.275H36.329v1.514a4.546,4.546,0,0,0,4.541,4.541h1.514a4.546,4.546,0,0,0,4.541-4.541V83.678A7.426,7.426,0,0,0,45.882,79.9a4.4,4.4,0,0,0,1.608-1.757l.547-1.094A3.762,3.762,0,0,0,47.871,73.363Zm-35.743-3.2a4.532,4.532,0,0,1,4.318-3.135H31.993a4.532,4.532,0,0,1,4.318,3.134l1.937,5.946H10.191Zm-8.47,6.625-.547-1.1a.75.75,0,0,1,.032-.736.737.737,0,0,1,.644-.36H7.5l-.61,1.875a7.634,7.634,0,0,0-2.177,1.068A1.47,1.47,0,0,1,3.657,76.787Zm5.425,19A1.516,1.516,0,0,1,7.569,97.3H6.055a1.516,1.516,0,0,1-1.514-1.514V94.275H9.082Zm34.815,0A1.516,1.516,0,0,1,42.383,97.3H40.869a1.516,1.516,0,0,1-1.514-1.514V94.275H43.9Zm0-7.57v3.028H4.541V83.678a4.546,4.546,0,0,1,4.541-4.541H39.356A4.546,4.546,0,0,1,43.9,83.678v4.541Zm1.431-12.527-.547,1.093a1.469,1.469,0,0,1-1.055.754,7.621,7.621,0,0,0-2.177-1.068l-.61-1.875h3.712a.737.737,0,0,1,.644.36.746.746,0,0,1,.032.737Z" transform="translate(0.001 -64)" fill="#fff"/>
</svg>
