<svg xmlns="http://www.w3.org/2000/svg" width="27.328" height="19.13" viewBox="0 0 27.328 19.13">
  <path id="cloud-download-alt" d="M23.216,39.178a4.774,4.774,0,0,0-5.726-4.347A7.516,7.516,0,0,0,4.257,37.97,6.832,6.832,0,0,0,6.832,51.13H21.18a6.15,6.15,0,0,0,2.037-11.952Zm-2.037,9.9H6.832a4.784,4.784,0,0,1-.683-9.518v-.047A5.465,5.465,0,0,1,16.67,37.44,2.732,2.732,0,0,1,20.8,40.9a3.688,3.688,0,0,1,.376-.017,4.1,4.1,0,1,1,0,8.2Zm-4.654-7.515H13.664V37.978a.514.514,0,0,0-.512-.512H11.444a.514.514,0,0,0-.512.512v3.587H8.07a.513.513,0,0,0-.363.875l4.227,4.227a.513.513,0,0,0,.726,0l4.227-4.227A.512.512,0,0,0,16.525,41.565Z" transform="translate(0 -32)" fill="#fff"/>
</svg>
