<svg xmlns="http://www.w3.org/2000/svg" width="36.551" height="36.551" viewBox="0 0 36.551 36.551">
  <path id="times-square" d="M26.581,45.2l-5.075,5.075,5.075,5.075a.98.98,0,0,1,0,1.387l-1.844,1.844a.98.98,0,0,1-1.387,0l-5.075-5.075L13.2,58.581a.98.98,0,0,1-1.387,0L9.97,56.737a.98.98,0,0,1,0-1.387l5.075-5.075L9.97,45.2a.98.98,0,0,1,0-1.387l1.844-1.844a.98.98,0,0,1,1.387,0l5.075,5.075L23.35,41.97a.98.98,0,0,1,1.387,0l1.844,1.844a.98.98,0,0,1,0,1.387Zm9.97-9.285V64.635a3.917,3.917,0,0,1-3.916,3.916H3.916A3.917,3.917,0,0,1,0,64.635V35.916A3.917,3.917,0,0,1,3.916,32H32.635A3.917,3.917,0,0,1,36.551,35.916ZM32.635,64.145V36.406a.491.491,0,0,0-.49-.49H4.406a.491.491,0,0,0-.49.49v27.74a.491.491,0,0,0,.49.49h27.74A.491.491,0,0,0,32.635,64.145Z" transform="translate(0 -32)" fill="#169fdb"/>
</svg>
