<svg id="fi-rr-picture" xmlns="http://www.w3.org/2000/svg" width="15.881" height="15.881" viewBox="0 0 15.881 15.881">
  <path id="Path_13" data-name="Path 13" d="M12.573,0H3.309A3.313,3.313,0,0,0,0,3.309v9.264a3.313,3.313,0,0,0,3.309,3.309h9.264a3.313,3.313,0,0,0,3.309-3.309V3.309A3.313,3.313,0,0,0,12.573,0ZM3.309,1.323h9.264a1.985,1.985,0,0,1,1.985,1.985v9.264a1.953,1.953,0,0,1-.2.85L8.3,7.36a3.309,3.309,0,0,0-4.68,0L1.323,9.652V3.309A1.985,1.985,0,0,1,3.309,1.323Zm0,13.234a1.985,1.985,0,0,1-1.985-1.985V11.523L4.551,8.3a1.985,1.985,0,0,1,2.808,0l6.063,6.064a1.953,1.953,0,0,1-.85.2Z" fill="#fff"/>
  <path id="Path_14" data-name="Path 14" d="M14.816,8.132A2.316,2.316,0,1,0,12.5,5.816,2.316,2.316,0,0,0,14.816,8.132Zm0-3.309a.993.993,0,1,1-.993.993.993.993,0,0,1,.993-.993Z" transform="translate(-4.229 -1.184)" fill="#fff"/>
</svg>
