<svg id="Warstwa_x0020_1" xmlns="http://www.w3.org/2000/svg" width="43.681" height="43.681" viewBox="0 0 43.681 43.681">
  <path id="Path_20" data-name="Path 20" d="M16.39,38.368a17.343,17.343,0,0,1-2.383-.987l-1.776,1.246A3.842,3.842,0,0,1,7.31,38.2L5.484,36.371a3.843,3.843,0,0,1-.43-4.922L6.3,29.673a17.445,17.445,0,0,1-.984-2.38l-2.138-.377A3.841,3.841,0,0,1,0,23.135V20.549a3.842,3.842,0,0,1,3.178-3.785l2.138-.374A17.328,17.328,0,0,1,6.3,14.008L5.054,12.232a3.843,3.843,0,0,1,.43-4.922L7.31,5.484a3.843,3.843,0,0,1,4.922-.43L14.011,6.3a17.292,17.292,0,0,1,2.38-.984l.374-2.138A3.842,3.842,0,0,1,20.549,0h2.586a3.841,3.841,0,0,1,3.782,3.178l.374,2.138a17.329,17.329,0,0,1,2.383.984l1.776-1.246a3.843,3.843,0,0,1,4.922.43L38.2,7.31a3.843,3.843,0,0,1,.43,4.922l-1.246,1.776a17.444,17.444,0,0,1,.984,2.38l2.141.377a3.842,3.842,0,0,1,3.175,3.785v2.586a3.836,3.836,0,0,1-3.175,3.782,1.5,1.5,0,1,1-.518-2.948.846.846,0,0,0,.7-.834V20.549a.847.847,0,0,0-.7-.834l-3.051-.533A1.5,1.5,0,0,1,35.749,18.1a14.249,14.249,0,0,0-1.42-3.437,1.5,1.5,0,0,1,.071-1.611l1.776-2.533a.845.845,0,0,0-.094-1.087L34.253,7.6a.849.849,0,0,0-1.087-.1l-2.53,1.779a1.51,1.51,0,0,1-1.611.071,14.4,14.4,0,0,0-3.44-1.423A1.5,1.5,0,0,1,24.5,6.745l-.536-3.051a.849.849,0,0,0-.834-.7H20.549a.844.844,0,0,0-.831.7l-.536,3.051A1.494,1.494,0,0,1,18.1,7.932a14.328,14.328,0,0,0-3.44,1.423,1.51,1.51,0,0,1-1.611-.071L10.515,7.5A.853.853,0,0,0,9.428,7.6L7.6,9.428A.853.853,0,0,0,7.5,10.515l1.776,2.53a1.5,1.5,0,0,1,.071,1.611,14.319,14.319,0,0,0-1.42,3.44,1.5,1.5,0,0,1-1.187,1.084l-3.051.533a.852.852,0,0,0-.7.836v2.586a.846.846,0,0,0,.7.831l3.051.533a1.5,1.5,0,0,1,1.187,1.087,14.113,14.113,0,0,0,1.423,3.44,1.51,1.51,0,0,1-.071,1.611L7.5,33.166A.852.852,0,0,0,7.6,34.253l1.829,1.829a.849.849,0,0,0,1.087.094L13.047,34.4a1.5,1.5,0,0,1,1.611-.071,14.249,14.249,0,0,0,3.437,1.42,1.5,1.5,0,0,1,1.084,1.187l.533,3.051a.847.847,0,0,0,.836.7h2.586a.846.846,0,0,0,.834-.7,1.5,1.5,0,1,1,2.948.518,3.836,3.836,0,0,1-3.782,3.175H20.549a3.84,3.84,0,0,1-3.785-3.175ZM22.054,13.8l2.2,2.244a4.156,4.156,0,0,1-.056,5.882l-2.324,2.28a4.149,4.149,0,0,1-2.91,1.187h-.038a4.13,4.13,0,0,1-2.933-1.246l-2.2-2.244c0,.085.006.168.012.25a7.8,7.8,0,0,0,8.32,7.251,7,7,0,0,1,5.511,2.088L34.6,38.665a1.5,1.5,0,1,1-2.147,2.085l-6.957-7.166a4.045,4.045,0,0,0-3.166-1.19A10.795,10.795,0,0,1,10.859,20.461a2.447,2.447,0,0,1,.722-1.5,2.515,2.515,0,0,1,3.552.032l3,3.06a1.168,1.168,0,0,0,1.652.015L22.1,19.795l0,0a1.168,1.168,0,0,0,.015-1.652l-3-3.057a2.515,2.515,0,0,1,.032-3.552,2.456,2.456,0,0,1,1.514-.692,10.991,10.991,0,0,1,1.894,0,10.794,10.794,0,0,1,9.816,11.7,4.072,4.072,0,0,0,1.137,3.2l6.96,7.175a1.5,1.5,0,0,1-2.147,2.085L31.37,27.818A7.057,7.057,0,0,1,29.4,22.275a7.64,7.64,0,0,0,.012-1.19A7.8,7.8,0,0,0,22.054,13.8Z" fill="#fff"/>
</svg>
