<svg xmlns="http://www.w3.org/2000/svg" width="31.323" height="32.668" viewBox="0 0 31.323 32.668">
  <path id="fi-rr-fingerprint" d="M8.128,30.331a1.361,1.361,0,0,1-.7-2.527c4.822-2.9,4.822-9.116,4.822-12.832a4.083,4.083,0,0,1,8.166,0,1.361,1.361,0,0,1-2.722,0,1.361,1.361,0,1,0-2.722,0c0,4.011,0,11.479-6.144,15.166a1.361,1.361,0,0,1-.7.193Zm6.755,1.934c3.106-3.13,4.92-7.532,5.391-13.095a1.361,1.361,0,0,0-1.24-1.477,1.338,1.338,0,0,0-1.471,1.24c-.423,4.977-1.931,8.711-4.611,11.407a1.361,1.361,0,0,0,1.931,1.919Zm7.077-.253a24.217,24.217,0,0,0,2.052-4.33,1.361,1.361,0,0,0-2.56-.923,21.578,21.578,0,0,1-1.821,3.84,1.362,1.362,0,0,0,2.329,1.413ZM25.18,23.4a42.818,42.818,0,0,0,.681-8.426A9.527,9.527,0,0,0,9.237,8.62a1.361,1.361,0,1,0,2.027,1.816,6.805,6.805,0,0,1,11.874,4.536,40.4,40.4,0,0,1-.629,7.906,1.361,1.361,0,0,0,1.075,1.6,1.333,1.333,0,0,0,.263.026A1.361,1.361,0,0,0,25.18,23.4ZM9.527,14.972a6.805,6.805,0,0,1,.094-1.134,1.361,1.361,0,1,0-2.68-.455,9.488,9.488,0,0,0-.136,1.588c0,6.322-1.832,9.527-5.444,9.527a1.361,1.361,0,1,0,0,2.722C6.627,27.221,9.527,22.866,9.527,14.972Zm18.646,16.9a40.5,40.5,0,0,0,3.13-16.9,14.788,14.788,0,0,0-1.5-6.525,1.362,1.362,0,1,0-2.45,1.191,12.113,12.113,0,0,1,1.225,5.334A37.987,37.987,0,0,1,25.7,30.741a1.361,1.361,0,0,0,.681,1.8,1.339,1.339,0,0,0,.562.122,1.361,1.361,0,0,0,1.233-.8ZM4.083,19.055V14.972A12.263,12.263,0,0,1,16.333,2.722a12.128,12.128,0,0,1,7.35,2.45,1.361,1.361,0,0,0,1.633-2.178A14.835,14.835,0,0,0,16.333,0,14.989,14.989,0,0,0,1.361,14.972v4.083a1.361,1.361,0,1,0,2.722,0Z" transform="translate(0 0)" fill="#fff"/>
</svg>
