<svg xmlns="http://www.w3.org/2000/svg" width="32.11" height="32.138" viewBox="0 0 32.11 32.138">
  <g id="home" transform="translate(-0.208 0)">
    <g id="Group_57" data-name="Group 57" transform="translate(0.208 0)">
      <path id="Path_56" data-name="Path 56" d="M32,15.257,29.7,12.962,17.075.336a1.148,1.148,0,0,0-1.623,0L2.826,12.962l-2.3,2.3a1.148,1.148,0,0,0,1.623,1.623l.335-.337V30.99a1.148,1.148,0,0,0,1.148,1.148H28.889a1.148,1.148,0,0,0,1.148-1.148V16.543l.336.336A1.148,1.148,0,0,0,32,15.257ZM19.706,29.842H12.819V20.66h6.887Zm8.035,0H22V19.512a1.148,1.148,0,0,0-1.148-1.148H11.671a1.148,1.148,0,0,0-1.148,1.148V29.842H4.784V14.248L16.262,2.769,27.741,14.248Z" transform="translate(-0.208 0)" fill="#fff"/>
    </g>
  </g>
</svg>
