<svg xmlns="http://www.w3.org/2000/svg" width="24.444" height="24.442" viewBox="0 0 24.444 24.442">
  <path id="paper-plane" d="M21.047.334,1.187,11.786a2.291,2.291,0,0,0,.272,4.1l5.457,2.258v4.029A2.294,2.294,0,0,0,11.05,23.54l2.091-2.821,5.342,2.206a2.3,2.3,0,0,0,3.141-1.771L24.46,2.668A2.3,2.3,0,0,0,21.047.334ZM9.207,22.174V19.09l1.747.721ZM19.357,20.8l-7.342-3.031,6.693-9.658A.765.765,0,0,0,17.576,7.1l-10.1,8.8L2.333,13.772,22.192,2.315Z" transform="translate(-0.043 -0.025)" fill="#fff"/>
</svg>
