<svg xmlns="http://www.w3.org/2000/svg" width="36.804" height="36.804" viewBox="0 0 36.804 36.804">
  <path id="smile" d="M18.4,36.8A18.4,18.4,0,0,1,5.39,5.39,18.4,18.4,0,0,1,31.414,31.414,18.282,18.282,0,0,1,18.4,36.8Zm0-33.929A15.527,15.527,0,1,0,33.929,18.4,15.544,15.544,0,0,0,18.4,2.875Zm6.738,18.7a1.437,1.437,0,0,0-1.985.441A6.327,6.327,0,0,1,18.33,24.8,6.327,6.327,0,0,1,13.5,22.02a1.438,1.438,0,0,0-2.426,1.544c.107.168,2.672,4.116,7.251,4.116s7.144-3.948,7.251-4.116a1.438,1.438,0,0,0-.441-1.985ZM12.076,11.861a1.8,1.8,0,1,1-1.8,1.8A1.8,1.8,0,0,1,12.076,11.861Zm10.782,1.8a1.8,1.8,0,1,0,1.8-1.8A1.8,1.8,0,0,0,22.859,13.658Z" transform="translate(0 0)" fill="#fff"/>
</svg>
