<svg xmlns="http://www.w3.org/2000/svg" width="24.841" height="24.841" viewBox="0 0 24.841 24.841">
  <path id="user-circle" d="M12.421,12.808a4.808,4.808,0,1,0,4.808,4.808A4.809,4.809,0,0,0,12.421,12.808Zm0,7.212a2.4,2.4,0,1,1,2.4-2.4A2.4,2.4,0,0,1,12.421,20.02Zm0-12.02A12.421,12.421,0,1,0,24.841,20.421,12.419,12.419,0,0,0,12.421,8Zm0,22.437A9.96,9.96,0,0,1,5.9,28.013a4.315,4.315,0,0,1,3.486-1.978,10.19,10.19,0,0,0,3.03.481,10.031,10.031,0,0,0,3.03-.481,4.327,4.327,0,0,1,3.486,1.978A9.96,9.96,0,0,1,12.421,30.437Zm8.149-4.212a6.643,6.643,0,0,0-5.264-2.6,15.03,15.03,0,0,1-2.885.481,15.111,15.111,0,0,1-2.885-.481,6.658,6.658,0,0,0-5.264,2.6,10.012,10.012,0,1,1,18.165-5.8A9.945,9.945,0,0,1,20.569,26.225Z" transform="translate(0 -8)" fill="#fff"/>
</svg>
