<svg xmlns="http://www.w3.org/2000/svg" width="26.429" height="26.429" viewBox="0 0 26.429 26.429">
  <path id="exclamation-circle" d="M21.215,8A13.215,13.215,0,1,0,34.429,21.215,13.217,13.217,0,0,0,21.215,8Zm0,23.872A10.657,10.657,0,1,1,31.872,21.215,10.651,10.651,0,0,1,21.215,31.872Zm2.238-5.542a2.238,2.238,0,1,1-2.238-2.238A2.241,2.241,0,0,1,23.453,26.33ZM19.117,15.066l.362,7.247a.639.639,0,0,0,.639.608h2.194a.639.639,0,0,0,.639-.608l.362-7.247a.639.639,0,0,0-.639-.671H19.756A.639.639,0,0,0,19.117,15.066Z" transform="translate(-8 -8)" fill="#fff"/>
</svg>
