<svg id="add_1_" data-name="add(1)" xmlns="http://www.w3.org/2000/svg" width="31.217" height="31.217" viewBox="0 0 31.217 31.217">
  <g id="Group_30" data-name="Group 30">
    <g id="Group_29" data-name="Group 29">
      <path id="Path_31" data-name="Path 31" d="M15.608,0A15.608,15.608,0,1,0,31.217,15.608,15.625,15.625,0,0,0,15.608,0Zm0,28.8A13.19,13.19,0,1,1,28.8,15.608,13.206,13.206,0,0,1,15.608,28.8Z" fill="#fff"/>
    </g>
  </g>
  <g id="Group_32" data-name="Group 32" transform="translate(8.354 8.246)">
    <g id="Group_31" data-name="Group 31">
      <path id="Path_32" data-name="Path 32" d="M150.321,141.283h-4.836v-4.836a1.209,1.209,0,1,0-2.418,0v4.836h-4.836a1.209,1.209,0,0,0,0,2.418h4.836v4.836a1.209,1.209,0,1,0,2.418,0V143.7h4.836a1.209,1.209,0,0,0,0-2.418Z" transform="translate(-137.022 -135.238)" fill="#fff"/>
    </g>
  </g>
</svg>
