<svg id="settings_2_" data-name="settings(2)" xmlns="http://www.w3.org/2000/svg" width="46.93" height="46.93" viewBox="0 0 46.93 46.93">
  <path id="Path_24" data-name="Path 24" d="M24.937,46.93H21.992a4.325,4.325,0,0,1-4.32-4.32v-1a18.946,18.946,0,0,1-2.942-1.221l-.706.706a4.32,4.32,0,0,1-6.11,0L5.832,39.016a4.32,4.32,0,0,1,0-6.11l.706-.706a18.947,18.947,0,0,1-1.221-2.942h-1A4.325,4.325,0,0,1,0,24.937V21.992a4.325,4.325,0,0,1,4.32-4.32h1A18.951,18.951,0,0,1,6.538,14.73l-.706-.706a4.32,4.32,0,0,1,0-6.11L7.914,5.832a4.32,4.32,0,0,1,6.11,0l.706.706a18.964,18.964,0,0,1,2.942-1.221v-1A4.325,4.325,0,0,1,21.992,0h2.945a4.325,4.325,0,0,1,4.32,4.32v1A18.946,18.946,0,0,1,32.2,6.538l.706-.706a4.32,4.32,0,0,1,6.11,0L41.1,7.914a4.32,4.32,0,0,1,0,6.11l-.706.706a18.947,18.947,0,0,1,1.221,2.942h1a4.325,4.325,0,0,1,4.32,4.32v2.945a4.325,4.325,0,0,1-4.32,4.32h-1A18.951,18.951,0,0,1,40.392,32.2l.706.706a4.32,4.32,0,0,1,0,6.11L39.016,41.1a4.32,4.32,0,0,1-6.11,0l-.706-.706a18.963,18.963,0,0,1-2.942,1.221v1A4.325,4.325,0,0,1,24.937,46.93ZM15.19,37.5a16.207,16.207,0,0,0,4.2,1.744,1.375,1.375,0,0,1,1.031,1.331v2.03a1.572,1.572,0,0,0,1.57,1.57h2.945a1.572,1.572,0,0,0,1.57-1.57v-2.03a1.375,1.375,0,0,1,1.031-1.331,16.207,16.207,0,0,0,4.2-1.744,1.375,1.375,0,0,1,1.672.211l1.438,1.438a1.57,1.57,0,0,0,2.22,0l2.083-2.083a1.57,1.57,0,0,0,0-2.22l-1.439-1.439A1.375,1.375,0,0,1,37.5,31.74a16.2,16.2,0,0,0,1.744-4.2,1.375,1.375,0,0,1,1.331-1.031h2.03a1.572,1.572,0,0,0,1.57-1.57V21.992a1.572,1.572,0,0,0-1.57-1.57h-2.03a1.375,1.375,0,0,1-1.331-1.031,16.207,16.207,0,0,0-1.744-4.2,1.375,1.375,0,0,1,.211-1.672l1.438-1.438a1.57,1.57,0,0,0,0-2.22L37.071,7.776a1.57,1.57,0,0,0-2.22,0L33.412,9.214a1.375,1.375,0,0,1-1.672.211,16.206,16.206,0,0,0-4.2-1.744A1.375,1.375,0,0,1,26.508,6.35V4.32a1.572,1.572,0,0,0-1.57-1.57H21.992a1.572,1.572,0,0,0-1.57,1.57V6.35A1.375,1.375,0,0,1,19.39,7.682a16.206,16.206,0,0,0-4.2,1.744,1.375,1.375,0,0,1-1.672-.211L12.08,7.776a1.57,1.57,0,0,0-2.22,0L7.776,9.858a1.57,1.57,0,0,0,0,2.22l1.439,1.439a1.375,1.375,0,0,1,.211,1.672,16.2,16.2,0,0,0-1.744,4.2A1.375,1.375,0,0,1,6.35,20.422H4.32a1.572,1.572,0,0,0-1.57,1.57v2.945a1.572,1.572,0,0,0,1.57,1.57H6.35a1.375,1.375,0,0,1,1.331,1.031,16.207,16.207,0,0,0,1.744,4.2,1.375,1.375,0,0,1-.211,1.672L7.776,34.85a1.57,1.57,0,0,0,0,2.22l2.083,2.083a1.57,1.57,0,0,0,2.22,0l1.439-1.439A1.381,1.381,0,0,1,15.19,37.5Z" transform="translate(0 0)" fill="#fff"/>
  <path id="Path_25" data-name="Path 25" d="M154.811,165.022a10.211,10.211,0,1,1,10.211-10.211A10.222,10.222,0,0,1,154.811,165.022Zm0-17.672a7.461,7.461,0,1,0,7.461,7.461A7.469,7.469,0,0,0,154.811,147.35Z" transform="translate(-131.346 -131.346)" fill="#fff"/>
</svg>
