<svg xmlns="http://www.w3.org/2000/svg" width="33.983" height="44.163" viewBox="0 0 33.983 44.163">
  <g id="pin" transform="translate(-378.2 -192)">
    <g id="Group_39" data-name="Group 39" transform="translate(378.2 192)">
      <path id="Path_37" data-name="Path 37" d="M395.193,236.163a1.747,1.747,0,0,1-1.1-.388,58.608,58.608,0,0,1-7.884-8.046,43.2,43.2,0,0,1-5.458-8.469,23.948,23.948,0,0,1-2.552-10.267,16.992,16.992,0,1,1,33.983,0,23.947,23.947,0,0,1-2.552,10.267,43.192,43.192,0,0,1-5.458,8.469,58.231,58.231,0,0,1-7.884,8.046A1.721,1.721,0,0,1,395.193,236.163Zm0-40.665A13.509,13.509,0,0,0,381.7,208.993c0,6.275,3.933,12.456,7.234,16.539a57.855,57.855,0,0,0,6.261,6.575,57.967,57.967,0,0,0,6.3-6.63c3.279-4.066,7.19-10.229,7.19-16.485A13.509,13.509,0,0,0,395.193,195.5Z" transform="translate(-378.2 -192)" fill="#fff"/>
    </g>
    <g id="Group_40" data-name="Group 40" transform="translate(386.459 200.324)">
      <path id="Path_38" data-name="Path 38" d="M689.134,514.068a8.7,8.7,0,1,1,3.4-.686A8.716,8.716,0,0,1,689.134,514.068Zm0-13.97a5.236,5.236,0,1,0,5.236,5.236A5.242,5.242,0,0,0,689.134,500.1Z" transform="translate(-680.4 -496.6)" fill="#fff"/>
    </g>
  </g>
</svg>
