<svg xmlns="http://www.w3.org/2000/svg" width="61.112" height="44.163" viewBox="0 0 61.112 44.163">
  <path id="friends" d="M61.047,31.659A16.526,16.526,0,0,0,51.295,19.3a10.136,10.136,0,0,0,3.616-7.783,9.909,9.909,0,1,0-19.815,0,10.137,10.137,0,0,0,3.62,7.786,16.167,16.167,0,0,0-2.386,1.26A16.51,16.51,0,0,0,31.5,25.319a20.362,20.362,0,0,0-4.131-2.113A12.567,12.567,0,0,0,32.558,13,12.405,12.405,0,0,0,20.283.5,12.405,12.405,0,0,0,8.007,13a12.567,12.567,0,0,0,5.187,10.2A20.806,20.806,0,0,0,.072,39.119,4.726,4.726,0,0,0,1.1,42.987a4.656,4.656,0,0,0,3.574,1.676H35.886a4.656,4.656,0,0,0,3.574-1.676,4.724,4.724,0,0,0,1.033-3.868,21.386,21.386,0,0,0-.66-2.692H57.082a4.01,4.01,0,0,0,3.077-1.443,4.06,4.06,0,0,0,.888-3.325ZM38.677,11.515a6.329,6.329,0,1,1,12.653,0,6.329,6.329,0,1,1-12.653,0ZM11.588,13a8.821,8.821,0,0,1,8.7-8.923A8.821,8.821,0,0,1,28.978,13a8.821,8.821,0,0,1-8.7,8.923A8.821,8.821,0,0,1,11.588,13ZM36.716,40.687a1.077,1.077,0,0,1-.83.4H4.679a1.077,1.077,0,0,1-.83-.4,1.141,1.141,0,0,1-.251-.943A17.055,17.055,0,0,1,20.283,25.507,17.055,17.055,0,0,1,36.968,39.745a1.138,1.138,0,0,1-.251.943Zm20.7-8a.435.435,0,0,1-.332.162H38.328a20.84,20.84,0,0,0-4.016-5.284A12.592,12.592,0,0,1,45,21.6,12.8,12.8,0,0,1,57.522,32.286a.481.481,0,0,1-.106.4Zm0,0" transform="translate(0.002 -0.501)" fill="#fff"/>
</svg>
